<?xml version="1.0" encoding="UTF-8"?>
<!-- Generated by Pixelmator Pro 3.7.1 -->
<svg width="400" height="400" viewBox="0 0 400 400" xmlns="http://www.w3.org/2000/svg">
    <path id="path1" fill="#000000" stroke="none" d="M 0 0 L 400 0 L 400 400 L 0 400 Z"/>
    <g id="g1">
        <path id="path2" fill="#ffffff" fill-rule="evenodd" stroke="none" d="M 122 343 C 122 346.865997 125.13401 350 129 350 L 166 350 C 169.865997 350 173 346.865997 173 343 L 173 58 C 173 54.134003 169.865997 51 166 51 L 129 51 C 125.13401 51 122 54.134003 122 58 Z"/>
        <path id="-" fill="#ffffff" fill-rule="evenodd" stroke="none" d="M 270 219 C 273.865997 219 277 215.865997 277 212 L 277 175 C 277 171.134003 273.865997 168 270 168 L 129 168 C 125.134003 168 122 171.134003 122 175 L 122 212 C 122 215.865997 125.134003 219 129 219 Z"/>
        <path id="--2" fill="#ffffff" fill-rule="evenodd" stroke="none" d="M 226 343 C 226 346.865997 229.134003 350 233 350 L 270 350 C 273.865997 350 277 346.865997 277 343 L 277 175 C 277 171.134003 273.865997 168 270 168 L 233 168 C 229.134003 168 226 171.134003 226 175 Z"/>
    </g>
</svg>
