<?xml version="1.0" encoding="UTF-8"?>
<!-- Generated by Pixelmator Pro 3.6.17 -->
<svg width="1000" height="1000" viewBox="0 0 1000 1000" xmlns="http://www.w3.org/2000/svg">
    <g id="g1">
        <path id="M--2" fill="#f3f3f3" fill-rule="evenodd" stroke="none" d="M 500 319 L 694.047485 120.523987 L 796.577026 120.523987 L 796.577026 383 L 694.047485 383 L 693 251 L 562.809509 383 L 439.773865 383 L 308 249 L 308.535889 383 L 206.006195 383 L 206.006195 120.523987 L 308.535889 120.523987 Z"/>
        <path id="Q" fill="#f3f3f3" fill-rule="evenodd" stroke="none" d="M 478 683 C 478 683 478.054108 648.003052 478 648 C 461.465698 647.067444 445.346497 644.828613 433.667999 641.447998 C 416.643921 636.519958 404.26004 629.22406 396.515991 619.559998 C 388.771973 609.895935 384.899994 597.896057 384.899994 583.559998 C 384.899994 569.223938 388.771973 557.22406 396.515991 547.559998 C 404.26004 537.895935 416.643921 530.600037 433.667999 525.671997 C 450.692078 520.743958 473.155853 518.280029 501.059998 518.280029 C 528.964111 518.280029 551.427917 520.743958 568.452026 525.671997 C 585.476074 530.600037 597.859985 537.895935 605.604004 547.559998 C 613.348022 557.22406 617.219971 569.223938 617.219971 583.559998 C 617.219971 597.896057 613.348022 609.895935 605.604004 619.559998 C 597.859985 629.22406 585.476074 636.519958 568.452026 641.447998 C 556.773499 644.828613 541.111816 646.186707 524 647 C 523.650818 647.016602 524 683 524 683 Z M 501.059998 612.359985 C 514.24408 612.359985 525.635986 611.559998 535.235962 609.959961 C 544.83606 608.359985 552.26001 605.47998 557.507996 601.320007 C 562.755981 597.159973 565.380005 591.240051 565.380005 583.559998 C 565.380005 575.879944 562.755981 569.960022 557.507996 565.799988 C 552.26001 561.640015 544.83606 558.76001 535.235962 557.160034 C 525.635986 555.559998 514.24408 554.76001 501.059998 554.76001 C 487.875946 554.76001 476.324036 555.559998 466.403992 557.160034 C 456.483948 558.76001 448.740021 561.640015 443.171997 565.799988 C 437.603973 569.960022 434.820007 575.879944 434.820007 583.559998 C 434.820007 591.240051 437.603973 597.159973 443.171997 601.320007 C 448.740021 605.47998 456.483948 608.359985 466.403992 609.959961 C 476.324036 611.559998 487.875946 612.359985 501.059998 612.359985 Z"/>
        <path id="H" fill="#f3f3f3" fill-rule="evenodd" stroke="none" d="M 425 749 L 577 749 L 577 794 L 425 794 Z M 577 696.679993 L 636.5 696.679993 L 636.5 849 L 577 849 Z M 365.179993 696.679993 L 425 697 L 425 849 L 365.179993 849 Z"/>
        <path id="path1" fill="#f3f3f3" fill-rule="evenodd" stroke="none" d="M 591.862 469.169983 C 599.716003 467.97998 606.141968 467.504028 614.947998 467.504028 L 662.072021 467.504028 C 670.877991 467.504028 677.303955 467.97998 685.157959 469.169983 L 685.157959 423.950012 C 678.018005 425.140015 670.877991 425.615967 662.072021 425.615967 L 614.947998 425.615967 C 606.141968 425.615967 599.002014 425.140015 591.862 423.950012 Z M 320.541992 469.169983 C 328.395996 467.97998 334.822021 467.504028 343.627991 467.504028 L 390.752014 467.504028 C 399.557983 467.504028 405.984009 467.97998 413.838013 469.169983 L 413.838013 423.950012 C 406.697998 425.140015 399.557983 425.615967 390.752014 425.615967 L 343.627991 425.615967 C 334.822021 425.615967 327.682007 425.140015 320.541992 423.950012 Z"/>
    </g>
</svg>
